<?xml version="1.0" encoding="iso-8859-1"?>
<!-- Generator: Adobe Illustrator 19.0.0, SVG Export Plug-In . SVG Version: 6.00 Build 0)  -->
<svg version="1.1" id="Capa_1" xmlns="http://www.w3.org/2000/svg" xmlns:xlink="http://www.w3.org/1999/xlink" x="0px" y="0px"
	 viewBox="0 0 512.315 512.315" style="enable-background:new 0 0 512.315 512.315;" xml:space="preserve">
<path style="fill:#FFC107;" d="M340.359,70.045l-21.333-42.667c-1.808-3.609-5.499-5.888-9.536-5.888H202.823
	c-4.037,0-7.728,2.279-9.536,5.888l-21.333,42.667c-2.639,5.267-0.509,11.676,4.758,14.315c1.483,0.743,3.119,1.13,4.778,1.13
	h149.333c5.891,0,10.667-4.776,10.666-10.667C341.489,73.165,341.102,71.529,340.359,70.045z"/>
<g>
	<path style="fill:#455A64;" d="M63.025,155.379c-1.3-2.612-3.612-4.578-6.4-5.44c-13.781-4.245-28.726-2.299-40.96,5.333
		c-10.914,9.002-16.711,22.789-15.509,36.885c0,20.011,32.299,28.544,51.52,31.851c2.246,0.373,4.552,0.03,6.592-0.981
		l21.333-10.667c5.271-2.63,7.413-9.035,4.783-14.307c-0.001-0.003-0.003-0.005-0.004-0.008L63.025,155.379z"/>
	<path style="fill:#455A64;" d="M496.689,155.272c-12.226-7.654-27.181-9.601-40.96-5.333c-2.788,0.862-5.1,2.828-6.4,5.44
		l-21.333,42.667c-2.634,5.269-0.499,11.676,4.771,14.311c0.003,0.001,0.005,0.003,0.008,0.004l21.333,10.667
		c2.04,1.011,4.346,1.355,6.592,0.981c19.157-3.307,51.456-11.84,51.456-31.851C513.368,178.069,507.587,164.283,496.689,155.272z"
		/>
	<path style="fill:#455A64;" d="M119.239,416.307l-64-10.667c-5.811-0.966-11.305,2.962-12.272,8.773
		c-0.096,0.577-0.144,1.16-0.144,1.744v42.667c0,17.673,14.327,32,32,32h21.333c17.673,0,32-14.327,32-32v-32
		C128.154,421.61,124.382,417.162,119.239,416.307z"/>
	<path style="fill:#455A64;" d="M465.713,408.008c-2.393-2.019-5.552-2.885-8.64-2.368l-64,10.667
		c-5.143,0.855-8.915,5.303-8.917,10.517v32c0,17.673,14.327,32,32,32h21.333c17.673,0,32-14.327,32-32v-42.667
		C469.491,413.018,468.11,410.036,465.713,408.008z"/>
</g>
<path style="fill:#607D8B;" d="M490.823,320.157c0,5.547-0.213,13.013-0.64,21.333c-1.493,27.52-6.827,65.28-23.893,82.133
	c-1.479,1.68-3.534,2.746-5.76,2.987l-64,10.667c-46.53,6.444-93.406,10.077-140.373,10.88
	c-46.885-0.882-93.681-4.443-140.16-10.667l-64.213-10.88c-2.226-0.241-4.281-1.306-5.76-2.987
	c-17.067-16.853-22.4-54.613-23.893-82.133c-0.427-8.32-0.64-15.787-0.64-21.333c0.041-14.361,1.687-28.672,4.907-42.667
	c5.515-30.795,19.727-59.369,40.96-82.347c2.227-2.126,5.249-3.211,8.32-2.987c1.28,0.213,136.107,10.667,180.48,10.667
	s179.2-10.453,180.48-10.667c3.071-0.224,6.093,0.861,8.32,2.987c21.233,22.977,35.445,51.551,40.96,82.347
	C489.136,291.486,490.781,305.797,490.823,320.157z"/>
<path style="fill:#FFC107;" d="M149.489,330.824c0,5.891-4.776,10.667-10.667,10.667H22.129c-0.427-8.32-0.64-15.787-0.64-21.333
	c0.041-14.361,1.687-28.672,4.907-42.667h69.76C125.611,277.491,149.489,301.369,149.489,330.824z"/>
<path style="fill:#455A64;" d="M338.972,281.267c-2.028-2.397-5.01-3.778-8.149-3.776H181.489
	c-5.891,0.003-10.664,4.781-10.662,10.672c0,0.584,0.049,1.168,0.144,1.744l10.667,64c0.855,5.143,5.303,8.915,10.517,8.917h128
	c5.214-0.002,9.662-3.774,10.517-8.917l10.667-64C341.857,286.819,340.991,283.66,338.972,281.267z"/>
<path style="fill:#CFD8DC;" d="M437.489,202.824c0,0-136.107,10.667-181.333,10.667S74.823,202.824,74.823,202.824
	c15.147-50.773,53.333-106.667,74.667-117.333s192-10.667,213.333,0C384.156,96.157,422.343,152.051,437.489,202.824z"/>
<path style="fill:#607D8B;" d="M256.156,224.157c-45.12,0-176.576-10.261-182.165-10.667c-5.873-0.462-10.259-5.598-9.796-11.471
	c0.059-0.747,0.196-1.485,0.41-2.204c15.104-50.603,54.037-110.784,80.128-123.733c23.957-11.968,198.912-11.968,222.869,0
	c26.091,13.035,65.024,73.237,80.128,123.733c1.679,5.647-1.537,11.585-7.183,13.265c-0.718,0.214-1.457,0.351-2.204,0.41
	C432.732,213.896,301.276,224.157,256.156,224.157z M89.244,193.224c35.563,2.688,131.008,9.6,166.912,9.6
	s131.349-6.912,166.912-9.6c-17.067-46.656-49.685-90.517-65.024-98.133c-18.091-9.045-185.707-9.045-203.797,0
	C138.823,102.707,106.311,146.547,89.244,193.224z"/>
<path style="fill:#FFC107;" d="M490.823,320.157c0,5.547-0.213,13.013-0.64,21.333H373.489c-5.891,0-10.667-4.776-10.667-10.667
	c0-29.455,23.878-53.333,53.333-53.333h69.76C489.136,291.486,490.781,305.797,490.823,320.157z"/>
<g>
</g>
<g>
</g>
<g>
</g>
<g>
</g>
<g>
</g>
<g>
</g>
<g>
</g>
<g>
</g>
<g>
</g>
<g>
</g>
<g>
</g>
<g>
</g>
<g>
</g>
<g>
</g>
<g>
</g>
</svg>
